<svg width="302" height="302" fill="none" xmlns="http://www.w3.org/2000/svg"><path d="M216.521 110.645c-4.907-4.914-12.885-4.914-17.792 0l-54.021 54.014-22.562-22.555c-4.907-4.914-12.885-4.914-17.792 0-4.914 4.913-4.914 12.879 0 17.792l31.458 31.459a12.523 12.523 0 008.896 3.687c3.222 0 6.443-1.227 8.897-3.687l62.916-62.917c4.914-4.914 4.914-12.879 0-17.793z" fill="#F2F2F2"/><path d="M289.417 138.417c-6.946 0-12.584 5.637-12.584 12.583 0 69.384-56.449 125.833-125.833 125.833-69.385 0-125.833-56.449-125.833-125.833C25.167 81.615 81.615 25.167 151 25.167c33.78 0 65.49 13.2 89.298 37.17 4.888 4.94 12.86 4.965 17.792.064 4.933-4.895 4.958-12.86.063-17.793C229.589 15.842 191.531 0 151 0 67.736 0 0 67.736 0 151s67.736 151 151 151 151-67.736 151-151c0-6.946-5.637-12.583-12.583-12.583z" fill="#F2F2F2"/></svg>