<svg width="122" height="47" fill="none" xmlns="http://www.w3.org/2000/svg"><path d="M105.657 16.824l7.142-3.914V0l-7.142 3.914v12.91zm-9.407-7.76L122 32.55h-13.184L84.301 9.064H96.25z" fill="#DA5C3E"/><path d="M65.28 25.682h12.84l12.086-10.85-5.974-5.768-18.953 16.618z" fill="#806D66"/><path d="M86.018 18.609l-1.717-9.476 5.974 5.7-4.257 3.776z" fill="#5E4B44"/><path d="M13.475 40.053c.344 0 .578.07.703.211.125.125.188.36.188.703v5.015c0 .328-.063.555-.188.68-.125.14-.36.21-.703.21h-2.437c-.344 0-.586-.07-.727-.21-.14-.125-.21-.352-.21-.68v-2.109H4.264v2.11c0 .327-.07.554-.21.679-.126.14-.36.21-.704.21H.891c-.344 0-.579-.07-.704-.21-.125-.125-.187-.352-.187-.68v-5.015c0-.343.062-.578.187-.703.125-.14.36-.21.704-.21h.351c.719-.688 1.078-1.954 1.078-3.797V32.32c0-.328.063-.555.188-.68.125-.14.351-.21.68-.21h8.576c.344 0 .579.07.703.21.141.125.211.352.211.68v7.733h.797zm-7.054-3.796c0 1.53-.187 2.796-.562 3.796h2.437v-4.78H6.421v.984zm8.87.234c0-1.75.5-3.085 1.5-4.007 1-.938 2.453-1.406 4.36-1.406 1.937 0 3.397.484 4.382 1.453 1 .953 1.5 2.18 1.5 3.679v1.289c0 .812-.43 1.218-1.29 1.218h-6.092v.446c0 1.015.507 1.523 1.523 1.523.797 0 1.422-.289 1.875-.867.156-.234.312-.367.468-.399.172-.046.453.008.844.165l1.617.703c.625.297.773.75.445 1.359-.89 1.547-2.656 2.32-5.296 2.32-2 0-3.476-.492-4.43-1.477-.937-.984-1.405-2.296-1.405-3.937v-2.062zm7.36-.914c0-.937-.5-1.406-1.5-1.406s-1.5.469-1.5 1.406v.305h3v-.305zm16.097-4.147c.344 0 .578.07.703.21.14.125.211.352.211.68v10.405c0 .328-.07.562-.21.703-.126.125-.36.187-.704.187h-2.554c-.344 0-.586-.062-.727-.187-.125-.14-.187-.375-.187-.703v-7.453h-1.688v.844c0 1.094-.078 2.07-.234 2.93-.156.843-.344 1.523-.562 2.038a4.87 4.87 0 01-.89 1.36c-.376.39-.704.68-.985.867-.281.172-.64.36-1.078.562-.469.203-.844.047-1.125-.468l-1.219-2.157c-.234-.406-.117-.75.352-1.03.375-.22.656-.438.844-.657.203-.219.398-.68.585-1.383.188-.718.282-1.663.282-2.835V32.32c0-.328.062-.555.187-.68.14-.14.375-.21.703-.21h8.296zm2.542 4.78c0-1.61.5-2.867 1.5-3.773 1-.906 2.437-1.36 4.312-1.36 1.89 0 3.328.454 4.312 1.36 1 .89 1.5 2.148 1.5 3.773v2.625c0 1.624-.5 2.89-1.5 3.796-.984.89-2.421 1.336-4.312 1.336-1.875 0-3.312-.453-4.312-1.36-1-.905-1.5-2.163-1.5-3.772V36.21zm7.289-.117c0-.844-.492-1.266-1.477-1.266-.968 0-1.453.422-1.453 1.266v2.859c0 .828.485 1.242 1.453 1.242.985 0 1.477-.414 1.477-1.242v-2.86zm18.769 3.96c.344 0 .578.07.703.211.125.125.188.36.188.703v5.015c0 .328-.063.555-.188.68-.125.14-.359.21-.703.21h-2.437c-.344 0-.586-.07-.726-.21-.141-.125-.211-.352-.211-.68v-2.109h-5.836v2.11c0 .327-.07.554-.21.679-.126.14-.36.21-.704.21h-2.46c-.344 0-.578-.07-.703-.21-.125-.125-.188-.352-.188-.68v-5.015c0-.343.063-.578.188-.703.125-.14.359-.21.703-.21h.351c.719-.688 1.078-1.954 1.078-3.797V32.32c0-.328.063-.555.188-.68.125-.14.351-.21.68-.21h8.577c.343 0 .578.07.703.21.14.125.21.352.21.68v7.733h.797zm-7.054-3.796c0 1.53-.187 2.796-.562 3.796h2.437v-4.78h-1.875v.984zm8.894-.047c0-1.61.5-2.867 1.5-3.773 1-.906 2.437-1.36 4.312-1.36 1.89 0 3.328.454 4.312 1.36 1 .89 1.5 2.148 1.5 3.773v2.625c0 1.624-.5 2.89-1.5 3.796-.984.89-2.422 1.336-4.312 1.336-1.875 0-3.312-.453-4.312-1.36-1-.905-1.5-2.163-1.5-3.772V36.21zm7.288-.117c0-.844-.492-1.266-1.476-1.266-.969 0-1.453.422-1.453 1.266v2.859c0 .828.484 1.242 1.453 1.242.984 0 1.476-.414 1.476-1.242v-2.86zm18.579-4.663c.39 0 .648.07.773.21.14.14.211.39.211.75v10.335c0 .344-.07.578-.21.703-.126.125-.36.187-.704.187h-2.086c-.343 0-.586-.062-.726-.187-.14-.14-.211-.383-.211-.727v-1.828c0-1.14.25-2.562.75-4.265h-.164c-.313.969-.617 1.735-.914 2.297l-.914 1.71c-.125.266-.266.446-.422.54-.156.093-.39.14-.703.14h-1.078c-.313 0-.547-.047-.703-.14-.14-.094-.281-.282-.422-.563l-.89-1.687c-.266-.484-.555-1.25-.867-2.297h-.165c.485 1.922.727 3.352.727 4.289V42.7c0 .328-.078.563-.234.703-.141.141-.375.211-.703.211h-2.063c-.36 0-.601-.054-.726-.164-.125-.125-.188-.367-.188-.726V32.39c0-.36.07-.61.211-.75.14-.14.406-.21.797-.21h2.015c.36 0 .625.054.797.163.172.094.336.281.492.563l2.484 4.663 2.461-4.64c.156-.281.313-.476.469-.586.172-.11.43-.164.773-.164h2.133z" fill="#333"/></svg>