<svg width="122" height="50" fill="none" xmlns="http://www.w3.org/2000/svg"><path d="M104.862 17.234l7.316-4.01V0l-7.316 4.01v13.224zm-9.637-7.949l26.379 24.058h-13.506L82.985 9.285h12.24zM63.5 26.308h13.154l12.38-11.114-6.12-5.909L63.5 26.308z" fill="#F2F2F2"/><path d="M84.744 19.063l-1.759-9.708 6.12 5.839-4.361 3.869z" fill="#BCBCBC"/><path d="M11.749 43.361h1.483V50h-3.65v-3.057H3.65V50H0v-6.64h1.369c.578-.943.867-2.235.867-3.878v-3.947h9.513v7.825zm-6.456 0h2.76v-4.448H5.931v.57c0 1.52-.212 2.814-.638 3.878zm12.387-.73c.38.928 1.232 1.392 2.555 1.392.821 0 1.513-.266 2.076-.799l2.738 1.917c-1.126 1.414-2.76 2.121-4.905 2.121-1.932 0-3.483-.562-4.654-1.688-1.156-1.14-1.734-2.578-1.734-4.312 0-1.718.57-3.156 1.711-4.311 1.14-1.156 2.593-1.734 4.357-1.734 1.704 0 3.11.57 4.221 1.71 1.11 1.142 1.665 2.571 1.665 4.29 0 .502-.053.973-.16 1.414h-7.87zm-.046-2.623h4.38c-.304-1.065-1.018-1.597-2.144-1.597-1.171 0-1.916.532-2.236 1.597zm19.933-4.472v11.407H33.78v-7.78h-2.282v3.058c0 1.794-.448 3.08-1.346 3.855-.882.776-2.243 1.065-4.083.867V43.43c.547.152.958.083 1.232-.206.274-.304.41-.821.41-1.551v-6.137h9.856zm7.7 11.726c-1.688 0-3.125-.578-4.311-1.733-1.187-1.172-1.78-2.601-1.78-4.29 0-1.688.593-3.11 1.78-4.266 1.186-1.17 2.623-1.756 4.311-1.756 1.704 0 3.141.585 4.312 1.756 1.186 1.156 1.78 2.578 1.78 4.267 0 1.688-.594 3.117-1.78 4.288-1.171 1.156-2.608 1.734-4.312 1.734zm0-3.65c.67 0 1.217-.22 1.643-.662.441-.44.662-1.01.662-1.71s-.221-1.27-.662-1.712c-.426-.44-.973-.661-1.643-.661-.654 0-1.201.22-1.642.662-.426.44-.639 1.01-.639 1.71s.213 1.27.639 1.712c.44.44.988.661 1.642.661zm18.28-.251h1.483V50h-3.65v-3.057h-5.932V50h-3.65v-6.64h1.369c.578-.943.867-2.235.867-3.878v-3.947h9.513v7.825zm-6.456 0h2.76v-4.448H57.73v.57c0 1.52-.213 2.814-.64 3.878zm14.554 3.901c-1.688 0-3.125-.578-4.311-1.733-1.187-1.172-1.78-2.601-1.78-4.29 0-1.688.593-3.11 1.78-4.266 1.186-1.17 2.623-1.756 4.311-1.756 1.704 0 3.141.585 4.312 1.756 1.186 1.156 1.78 2.578 1.78 4.267 0 1.688-.594 3.117-1.78 4.288-1.171 1.156-2.608 1.734-4.312 1.734zm0-3.65c.67 0 1.217-.22 1.643-.662.441-.44.662-1.01.662-1.71s-.221-1.27-.662-1.712c-.426-.44-.973-.661-1.643-.661-.654 0-1.201.22-1.642.662-.426.44-.639 1.01-.639 1.71s.213 1.27.639 1.712c.44.44.988.661 1.642.661zm20.35-8.076v11.407h-3.65v-5.498l-2.441 3.787h-.41l-2.419-3.764v5.475h-3.673V35.536h3.673l2.624 4.107 2.646-4.107h3.65z" fill="#F2F2F2"/></svg>