<svg width="302" height="302" viewBox="0 0 302 302" fill="none" xmlns="http://www.w3.org/2000/svg">
<path d="M216.521 110.645C211.614 105.731 203.636 105.731 198.729 110.645L144.708 164.659L122.146 142.104C117.239 137.19 109.261 137.19 104.354 142.104C99.4398 147.017 99.4398 154.983 104.354 159.896L135.812 191.355C138.266 193.815 141.487 195.042 144.708 195.042C147.93 195.042 151.151 193.815 153.605 191.355L216.521 128.438C221.435 123.524 221.435 115.559 216.521 110.645Z" fill="#F2F2F2"/>
<path d="M289.417 138.417C282.471 138.417 276.833 144.054 276.833 151C276.833 220.384 220.384 276.833 151 276.833C81.6155 276.833 25.1667 220.384 25.1667 151C25.1667 81.6155 81.6155 25.1667 151 25.1667C184.78 25.1667 216.49 38.3666 240.298 62.3378C245.186 67.2768 253.158 67.302 258.09 62.4007C263.023 57.5058 263.048 49.5406 258.153 44.6079C229.589 15.8424 191.531 0 151 0C67.7361 0 0 67.7361 0 151C0 234.264 67.7361 302 151 302C234.264 302 302 234.264 302 151C302 144.054 296.363 138.417 289.417 138.417Z" fill="#F2F2F2"/>
</svg>
