<svg width="122" height="50" viewBox="0 0 122 50" fill="none" xmlns="http://www.w3.org/2000/svg">
<path d="M104.862 17.2341L112.178 13.2245V0L104.862 4.00956V17.2341Z" fill="#F2F2F2"/>
<path d="M95.2251 9.28531L121.604 33.3427H108.098L82.9854 9.28531H95.2251Z" fill="#F2F2F2"/>
<path d="M63.5 26.3082H76.6542L89.0346 15.194L82.9147 9.28516L63.5 26.3082Z" fill="#F2F2F2"/>
<path d="M84.7439 19.0628L82.9854 9.35547L89.1052 15.194L84.7439 19.0628Z" fill="#BCBCBC"/>
<path d="M11.7489 43.3612H13.2318V49.9999H9.58164V46.9429H3.65015V49.9999H0V43.3612H1.36881C1.94675 42.4182 2.23572 41.1255 2.23572 39.4829V35.5362H11.7489V43.3612ZM5.29271 43.3612H8.05314V38.9126H5.93149V39.4829C5.93149 41.0038 5.71856 42.2966 5.29271 43.3612Z" fill="#F2F2F2"/>
<path d="M17.68 42.6312C18.0603 43.5589 18.912 44.0228 20.2351 44.0228C21.0564 44.0228 21.7484 43.7566 22.3112 43.2243L25.0488 45.1406C23.9233 46.5551 22.2884 47.2623 20.1439 47.2623C18.2124 47.2623 16.661 46.6996 15.49 45.5741C14.3341 44.4334 13.7561 42.9962 13.7561 41.2624C13.7561 39.5437 14.3265 38.1065 15.4671 36.9506C16.6078 35.7947 18.0603 35.2168 19.8245 35.2168C21.5279 35.2168 22.9347 35.7871 24.045 36.9278C25.1552 38.0685 25.7104 39.4981 25.7104 41.2167C25.7104 41.7186 25.6571 42.1901 25.5507 42.6312H17.68ZM17.6344 40.0076H22.0146C21.7104 38.943 20.9956 38.4107 19.8701 38.4107C18.699 38.4107 17.9538 38.943 17.6344 40.0076Z" fill="#F2F2F2"/>
<path d="M37.5668 35.5362V46.9429H33.7797V39.1635H31.4984V42.2205C31.4984 44.0152 31.0497 45.3003 30.1524 46.076C29.2703 46.8516 27.9091 47.1406 26.0688 46.9429V43.4296C26.6163 43.5817 27.027 43.5133 27.3007 43.2243C27.5745 42.9201 27.7114 42.403 27.7114 41.673V35.5362H37.5668Z" fill="#F2F2F2"/>
<path d="M45.2673 47.2623C43.5792 47.2623 42.1419 46.6843 40.9556 45.5285C39.7693 44.3574 39.1762 42.9277 39.1762 41.2395C39.1762 39.5513 39.7693 38.1293 40.9556 36.9734C42.1419 35.8023 43.5792 35.2168 45.2673 35.2168C46.9708 35.2168 48.408 35.8023 49.5791 36.9734C50.7654 38.1293 51.3585 39.5513 51.3585 41.2395C51.3585 42.9277 50.7654 44.3574 49.5791 45.5285C48.408 46.6843 46.9708 47.2623 45.2673 47.2623ZM45.2673 43.6121C45.9365 43.6121 46.4841 43.3916 46.9099 42.9505C47.351 42.5095 47.5715 41.9392 47.5715 41.2395C47.5715 40.5399 47.351 39.9696 46.9099 39.5285C46.4841 39.0875 45.9365 38.8669 45.2673 38.8669C44.6134 38.8669 44.0658 39.0875 43.6248 39.5285C43.1989 39.9696 42.986 40.5399 42.986 41.2395C42.986 41.9392 43.1989 42.5095 43.6248 42.9505C44.0658 43.3916 44.6134 43.6121 45.2673 43.6121Z" fill="#F2F2F2"/>
<path d="M63.547 43.3612H65.0298V49.9999H61.3797V46.9429H55.4482V49.9999H51.798V43.3612H53.1669C53.7448 42.4182 54.0338 41.1255 54.0338 39.4829V35.5362H63.547V43.3612ZM57.0908 43.3612H59.8512V38.9126H57.7295V39.4829C57.7295 41.0038 57.5166 42.2966 57.0908 43.3612Z" fill="#F2F2F2"/>
<path d="M71.6454 47.2623C69.9572 47.2623 68.5199 46.6843 67.3336 45.5285C66.1473 44.3574 65.5542 42.9277 65.5542 41.2395C65.5542 39.5513 66.1473 38.1293 67.3336 36.9734C68.5199 35.8023 69.9572 35.2168 71.6454 35.2168C73.3488 35.2168 74.786 35.8023 75.9571 36.9734C77.1434 38.1293 77.7365 39.5513 77.7365 41.2395C77.7365 42.9277 77.1434 44.3574 75.9571 45.5285C74.786 46.6843 73.3488 47.2623 71.6454 47.2623ZM71.6454 43.6121C72.3146 43.6121 72.8621 43.3916 73.2879 42.9505C73.729 42.5095 73.9495 41.9392 73.9495 41.2395C73.9495 40.5399 73.729 39.9696 73.2879 39.5285C72.8621 39.0875 72.3146 38.8669 71.6454 38.8669C70.9914 38.8669 70.4439 39.0875 70.0028 39.5285C69.577 39.9696 69.364 40.5399 69.364 41.2395C69.364 41.9392 69.577 42.5095 70.0028 42.9505C70.4439 43.3916 70.9914 43.6121 71.6454 43.6121Z" fill="#F2F2F2"/>
<path d="M91.9951 35.5362V46.9429H88.345V41.4449L85.9039 45.2319H85.4933L83.0751 41.4677V46.9429H79.4021V35.5362H83.0751L85.6986 39.6426L88.345 35.5362H91.9951Z" fill="#F2F2F2"/>
</svg>
