<svg width="122" height="47" viewBox="0 0 122 47" fill="none" xmlns="http://www.w3.org/2000/svg">
<path d="M105.657 16.8237L112.799 12.9096V0L105.657 3.91408V16.8237Z" fill="#DA5C3E"/>
<path d="M96.2495 9.06419L122 32.5487H108.816L84.3013 9.06419H96.2495Z" fill="#DA5C3E"/>
<path d="M65.2795 25.6821H78.1205L90.2061 14.8326L84.2319 9.06445L65.2795 25.6821Z" fill="#806D66"/>
<path d="M86.018 18.609L84.3013 9.13281L90.2754 14.8323L86.018 18.609Z" fill="#5E4B44"/>
<path d="M13.4752 40.0533C13.8189 40.0533 14.0532 40.1236 14.1782 40.2642C14.3032 40.3892 14.3657 40.6235 14.3657 40.9672V45.9823C14.3657 46.3104 14.3032 46.537 14.1782 46.6619C14.0532 46.8026 13.8189 46.8729 13.4752 46.8729H11.0379C10.6942 46.8729 10.452 46.8026 10.3114 46.6619C10.1708 46.537 10.1005 46.3104 10.1005 45.9823V43.8732H4.26518V45.9823C4.26518 46.3104 4.19487 46.537 4.05426 46.6619C3.92928 46.8026 3.69493 46.8729 3.35121 46.8729H0.890532C0.546818 46.8729 0.312467 46.8026 0.18748 46.6619C0.0624935 46.537 0 46.3104 0 45.9823V40.9672C0 40.6235 0.0624935 40.3892 0.18748 40.2642C0.312467 40.1236 0.546818 40.0533 0.890532 40.0533H1.24206C1.96073 39.3658 2.32007 38.1003 2.32007 36.2568V32.3197C2.32007 31.9916 2.38256 31.7651 2.50755 31.6401C2.63254 31.4995 2.85908 31.4292 3.18717 31.4292H11.7644C12.1081 31.4292 12.3425 31.4995 12.4674 31.6401C12.6081 31.7651 12.6784 31.9916 12.6784 32.3197V40.0533H13.4752ZM6.4212 36.2568C6.4212 37.7879 6.23372 39.0534 5.85876 40.0533H8.29601V35.2725H6.4212V36.2568Z" fill="#333333"/>
<path d="M15.2915 36.4911C15.2915 34.7413 15.7915 33.4055 16.7914 32.4837C17.7913 31.5463 19.2443 31.0776 21.1503 31.0776C23.0876 31.0776 24.5484 31.562 25.5327 32.5306C26.5326 33.4836 27.0325 34.7101 27.0325 36.2099V37.4988C27.0325 38.3113 26.6029 38.7175 25.7436 38.7175H19.6505V39.1627C19.6505 40.1782 20.1582 40.686 21.1737 40.686C21.9705 40.686 22.5955 40.397 23.0485 39.8189C23.2048 39.5846 23.361 39.4518 23.5173 39.4205C23.6891 39.3736 23.9703 39.4283 24.3609 39.5846L25.9779 40.2876C26.6029 40.5845 26.7513 41.0375 26.4232 41.6468C25.5327 43.1936 23.7672 43.9669 21.1269 43.9669C19.1271 43.9669 17.6507 43.4748 16.6977 42.4905C15.7603 41.5062 15.2915 40.1939 15.2915 38.5534V36.4911ZM22.6502 35.5772C22.6502 34.6398 22.1502 34.1711 21.1503 34.1711C20.1504 34.1711 19.6505 34.6398 19.6505 35.5772V35.8818H22.6502V35.5772Z" fill="#333333"/>
<path d="M38.7482 31.4292C39.0919 31.4292 39.3263 31.4995 39.4512 31.6401C39.5919 31.7651 39.6622 31.9916 39.6622 32.3197V42.7249C39.6622 43.0529 39.5919 43.2873 39.4512 43.4279C39.3263 43.5529 39.0919 43.6154 38.7482 43.6154H36.1938C35.8501 43.6154 35.6079 43.5529 35.4673 43.4279C35.3423 43.2873 35.2798 43.0529 35.2798 42.7249V35.2725H33.5925V36.1162C33.5925 37.2098 33.5144 38.1863 33.3581 39.0456C33.2019 39.8892 33.0144 40.5688 32.7957 41.0844C32.577 41.5843 32.2801 42.0374 31.9052 42.4436C31.5302 42.8342 31.2021 43.1233 30.9209 43.3107C30.6397 43.4826 30.2803 43.6701 29.8429 43.8732C29.3742 44.0763 28.9992 43.92 28.718 43.4045L27.4994 41.2484C27.265 40.8422 27.3822 40.4985 27.8509 40.2173C28.2259 39.9986 28.5071 39.7799 28.6946 39.5611C28.8977 39.3424 29.093 38.8815 29.2804 38.1785C29.4679 37.4598 29.5617 36.5146 29.5617 35.3428V32.3197C29.5617 31.9916 29.6242 31.7651 29.7491 31.6401C29.8898 31.4995 30.1241 31.4292 30.4522 31.4292H38.7482Z" fill="#333333"/>
<path d="M41.2903 36.2099C41.2903 34.6007 41.7903 33.343 42.7902 32.4369C43.7901 31.5307 45.2274 31.0776 47.1022 31.0776C48.9927 31.0776 50.43 31.5307 51.4143 32.4369C52.4142 33.3274 52.9141 34.5851 52.9141 36.2099V38.8346C52.9141 40.4595 52.4142 41.725 51.4143 42.6311C50.43 43.5216 48.9927 43.9669 47.1022 43.9669C45.2274 43.9669 43.7901 43.5138 42.7902 42.6077C41.7903 41.7015 41.2903 40.4438 41.2903 38.8346V36.2099ZM48.5787 36.0927C48.5787 35.2491 48.0865 34.8272 47.1022 34.8272C46.1336 34.8272 45.6493 35.2491 45.6493 36.0927V38.9518C45.6493 39.7799 46.1336 40.1939 47.1022 40.1939C48.0865 40.1939 48.5787 39.7799 48.5787 38.9518V36.0927Z" fill="#333333"/>
<path d="M67.3483 40.0533C67.692 40.0533 67.9264 40.1236 68.0513 40.2642C68.1763 40.3892 68.2388 40.6235 68.2388 40.9672V45.9823C68.2388 46.3104 68.1763 46.537 68.0513 46.6619C67.9264 46.8026 67.692 46.8729 67.3483 46.8729H64.911C64.5673 46.8729 64.3252 46.8026 64.1846 46.6619C64.044 46.537 63.9736 46.3104 63.9736 45.9823V43.8732H58.1383V45.9823C58.1383 46.3104 58.068 46.537 57.9274 46.6619C57.8024 46.8026 57.5681 46.8729 57.2243 46.8729H54.7637C54.42 46.8729 54.1856 46.8026 54.0606 46.6619C53.9356 46.537 53.8731 46.3104 53.8731 45.9823V40.9672C53.8731 40.6235 53.9356 40.3892 54.0606 40.2642C54.1856 40.1236 54.42 40.0533 54.7637 40.0533H55.1152C55.8339 39.3658 56.1932 38.1003 56.1932 36.2568V32.3197C56.1932 31.9916 56.2557 31.7651 56.3807 31.6401C56.5057 31.4995 56.7322 31.4292 57.0603 31.4292H65.6375C65.9812 31.4292 66.2156 31.4995 66.3406 31.6401C66.4812 31.7651 66.5515 31.9916 66.5515 32.3197V40.0533H67.3483ZM60.2943 36.2568C60.2943 37.7879 60.1069 39.0534 59.7319 40.0533H62.1691V35.2725H60.2943V36.2568Z" fill="#333333"/>
<path d="M69.1881 36.2099C69.1881 34.6007 69.6881 33.343 70.688 32.4369C71.6879 31.5307 73.1252 31.0776 75 31.0776C76.8904 31.0776 78.3278 31.5307 79.3121 32.4369C80.312 33.3274 80.8119 34.5851 80.8119 36.2099V38.8346C80.8119 40.4595 80.312 41.725 79.3121 42.6311C78.3278 43.5216 76.8904 43.9669 75 43.9669C73.1252 43.9669 71.6879 43.5138 70.688 42.6077C69.6881 41.7015 69.1881 40.4438 69.1881 38.8346V36.2099ZM76.4764 36.0927C76.4764 35.2491 75.9843 34.8272 75 34.8272C74.0314 34.8272 73.547 35.2491 73.547 36.0927V38.9518C73.547 39.7799 74.0314 40.1939 75 40.1939C75.9843 40.1939 76.4764 39.7799 76.4764 38.9518V36.0927Z" fill="#333333"/>
<path d="M95.0547 31.4292C95.4453 31.4292 95.7031 31.4995 95.8281 31.6401C95.9687 31.7807 96.039 32.0307 96.039 32.39V42.7249C96.039 43.0686 95.9687 43.3029 95.8281 43.4279C95.7031 43.5529 95.4688 43.6154 95.125 43.6154H93.0393C92.6956 43.6154 92.4534 43.5529 92.3128 43.4279C92.1722 43.2873 92.1019 43.0451 92.1019 42.7014V40.8735C92.1019 39.733 92.3519 38.3113 92.8518 36.6083H92.6878C92.3753 37.577 92.0707 38.3425 91.7738 38.9049L90.8599 40.6157C90.7349 40.8813 90.5943 41.061 90.438 41.1547C90.2818 41.2484 90.0475 41.2953 89.735 41.2953H88.657C88.3445 41.2953 88.1101 41.2484 87.9539 41.1547C87.8133 41.061 87.6727 40.8735 87.5321 40.5923L86.6416 38.9049C86.376 38.4206 86.0869 37.6551 85.7745 36.6083H85.6104C86.0947 38.53 86.3369 39.9595 86.3369 40.8969V42.7014C86.3369 43.0295 86.2588 43.2639 86.1026 43.4045C85.9619 43.5451 85.7276 43.6154 85.3995 43.6154H83.3372C82.9779 43.6154 82.7357 43.5607 82.6107 43.4513C82.4857 43.3264 82.4232 43.0842 82.4232 42.7249V32.39C82.4232 32.0307 82.4936 31.7807 82.6342 31.6401C82.7748 31.4995 83.0404 31.4292 83.431 31.4292H85.4464C85.8057 31.4292 86.0713 31.4838 86.2432 31.5932C86.415 31.6869 86.5791 31.8744 86.7353 32.1556L89.2194 36.8192L91.6801 32.1791C91.8363 31.8979 91.9926 31.7026 92.1488 31.5932C92.3206 31.4838 92.5784 31.4292 92.9221 31.4292H95.0547Z" fill="#333333"/>
</svg>
