<svg width="28" height="36" viewBox="0 0 28 36" fill="none" xmlns="http://www.w3.org/2000/svg">
<path d="M14 0.28125C6.40098 0.28125 0.21875 6.46348 0.21875 14.0625C0.21875 17.7539 2.45518 22.4944 6.86588 28.1516C8.88664 30.7367 11.075 33.1864 13.4168 35.4847C13.5738 35.6349 13.7827 35.7187 14 35.7187C14.2173 35.7187 14.4262 35.6349 14.5832 35.4847C16.925 33.1864 19.1134 30.7367 21.1341 28.1516C25.5448 22.4944 27.7812 17.7539 27.7812 14.0625C27.7812 6.46348 21.599 0.28125 14 0.28125ZM14 23.9062C8.57188 23.9062 4.15625 19.4906 4.15625 14.0625C4.15625 8.63438 8.57188 4.21875 14 4.21875C19.4281 4.21875 23.8438 8.63438 23.8438 14.0625C23.8438 19.4906 19.4281 23.9062 14 23.9062Z" fill="#DA5C3E"/>
<path d="M20.7551 12.8757L14.5676 7.25067C14.4123 7.10948 14.2099 7.03125 14 7.03125C13.7901 7.03125 13.5878 7.10948 13.4325 7.25067L7.24498 12.8757C7.10083 13.0068 7.00646 13.1837 6.97788 13.3764C6.9493 13.5691 6.98827 13.7658 7.08818 13.9331C7.16701 14.0605 7.27749 14.1652 7.40884 14.2372C7.5402 14.3091 7.68795 14.3459 7.83772 14.3437H8.65629V19.6875C8.65629 19.9113 8.74519 20.1259 8.90342 20.2841C9.06166 20.4423 9.27627 20.5312 9.50004 20.5312H11.4688C11.6926 20.5312 11.9072 20.4423 12.0654 20.2841C12.2236 20.1259 12.3125 19.9113 12.3125 19.6875V16.5937C12.3125 16.37 12.4014 16.1553 12.5597 15.9971C12.7179 15.8389 12.9325 15.75 13.1563 15.75H14.8438C15.0676 15.75 15.2822 15.8389 15.4404 15.9971C15.5986 16.1553 15.6875 16.37 15.6875 16.5937V19.6875C15.6875 19.9113 15.7764 20.1259 15.9347 20.2841C16.0929 20.4423 16.3075 20.5312 16.5313 20.5312H18.5C18.7238 20.5312 18.9384 20.4423 19.0967 20.2841C19.2549 20.1259 19.3438 19.9113 19.3438 19.6875V14.3437H20.1624C20.3121 14.3459 20.4599 14.3091 20.5912 14.2372C20.7226 14.1652 20.8331 14.0605 20.9119 13.9331C21.0118 13.7658 21.0508 13.5691 21.0222 13.3764C20.9936 13.1837 20.8992 13.0068 20.7551 12.8757Z" fill="#DA5C3E"/>
</svg>
